<svg xmlns="http://www.w3.org/2000/svg" width="299" height="338" viewBox="0 0 299 338">
  <g fill="none" fill-rule="evenodd">
    <g transform="translate(20 130.122)">
      <polygon fill="#D1E2F4" points="39 68.115 131 15 131 104 39 157.115" transform="rotate(60 85 86.057)"/>
      <polygon fill="#D1E2F4" points=".46 71.75 92.46 124.87 92.46 134.87 .46 81.75"/>
      <polygon fill="#D1E2F4" points="92.46 124.87 169.54 80.36 169.54 90.36 92.46 134.87"/>
      <polygon fill="#FCFCFC" points="39 58.115 131 5 131 94 39 147.115" transform="rotate(60 85 76.057)"/>
      <path stroke="#6E9CCD" stroke-width="4" d="M92.5,122.8132 L92.4594929,122.789706 L92.5,122.766188 L92.5,122 L92.5,122.766188 L92.4594929,122.789706 L92.5,122.8132 L92.5,122.766188 L165.54,80.36 L92.5,122.766188 L92.5,122.8132 Z M92.5,122.8132 L93.46,123.37 L92.5,122.8132 L92.5,132.5 L92.5,122.8132 Z M92.4594929,122.789706 L4.46,71.75 L92.4594929,122.789706 L91.46,123.37 L92.4594929,122.789706 Z"/>
      <path stroke="#2B6CB0" stroke-width="4" d="M92.4984105,132.690946 L167.5,89.3458711 L167.5,81.6505404 L77.4968858,29.3117729 L2.5,72.6541289 L2.5,80.8440351 L92.4984105,132.690946 Z"/>
    </g>
    <polygon fill="#A2B7CD" points="0 120.622 210 .122 210 139.5 0 260.622"/>
    <polygon fill="#D1E2F4" points="11 127.122 221 6.122 221 146 11 267.122"/>
    <path fill="#FCFCFC" stroke="#2B6CB0" stroke-width="4" d="M23,138.269453 L23,243.634944 L209,134.852763 L209,29.6062949 L23,138.269453 Z"/>
    <polygon fill="#D1E2F4" points="0 120.622 11 127.122 11 267.122 0 260.622"/>
    <polygon fill="#FCFCFC" points="11 127.122 221 6.122 210 .122 0 120.622"/>
    <polyline stroke="#6E9CCD" stroke-width="4" points="1.5 122.122 11 128.122 11 265.622"/>
    <path stroke="#6E9CCD" stroke-width="4" d="M11.5,129.121582 L219,9.62158203"/>
    <g transform="translate(37 106.122)">
      <path fill="#FCFCFC" stroke="#6E9CCD" stroke-width="4" d="M-2,38.7927155 L71,-3.46882818 L71,68.2072845 L-2,110.468828 L-2,38.7927155 Z"/>
      <polygon fill="#D1E2F4" points="16 47.4 55 25 55 62.6 16 85"/>
      <polygon fill="#FCFCFC" points="43 51 32 62.934 32 51.934"/>
      <polygon fill="#D1E2F4" points="0 39.957 69 0 69 9.043 0 49"/>
      <path fill="#69CB8C" d="M11,37.7994112 C11.5522847,37.385833 12,36.4687953 12,35.7511503 C12,35.0335053 11.5522847,34.7870105 11,35.2005888 C10.4477153,35.614167 10,36.5312047 10,37.2488497 C10,37.9664947 10.4477153,38.2129895 11,37.7994112 Z"/>
      <path fill="#CBC969" d="M7,39.7994112 C7.55228475,39.385833 8,38.4687953 8,37.7511503 C8,37.0335053 7.55228475,36.7870105 7,37.2005888 C6.44771525,37.614167 6,38.5312047 6,39.2488497 C6,39.9664947 6.44771525,40.2129895 7,39.7994112 Z"/>
      <path fill="#CB6969" d="M3,41.7994112 C3.55228475,41.385833 4,40.4687953 4,39.7511503 C4,39.0335053 3.55228475,38.7870105 3,39.2005888 C2.44771525,39.614167 2,40.5312047 2,41.2488497 C2,41.9664947 2.44771525,42.2129895 3,41.7994112 Z"/>
      <polygon fill="#FCFCFC" points="16 33.955 66 5 66 8.045 16 37"/>
    </g>
    <g transform="translate(119 51.122)">
      <path fill="#D1E2F4" stroke="#6E9CCD" stroke-width="4" d="M-2,46.1177046 L82,-2.4892927 L82,79.8397422 L-2,128.44674 L-2,46.1177046 Z"/>
      <path fill="#69CB8C" d="M13.5,44.2781346 C14.3284271,43.8645564 15,42.9475187 15,42.2298737 C15,41.5122287 14.3284271,41.2657339 13.5,41.6793122 C12.6715729,42.0928904 12,43.0099281 12,43.7275731 C12,44.4452181 12.6715729,44.6917129 13.5,44.2781346 Z"/>
      <path fill="#CBC969" d="M8.5,46.7781346 C9.32842712,46.3645564 10,45.4475187 10,44.7298737 C10,44.0122287 9.32842712,43.7657339 8.5,44.1793122 C7.67157288,44.5928904 7,45.5099281 7,46.2275731 C7,46.9452181 7.67157288,47.1917129 8.5,46.7781346 Z"/>
      <path fill="#CB6969" d="M3.5,49.7781346 C4.32842712,49.3645564 5,48.4475187 5,47.7298737 C5,47.0122287 4.32842712,46.7657339 3.5,47.1793122 C2.67157288,47.5928904 2,48.5099281 2,49.2275731 C2,49.9452181 2.67157288,50.1917129 3.5,49.7781346 Z"/>
      <g transform="translate(5 59)">
        <polygon fill="#CD886E" points="0 0 29 -16.617 29 -12.617 0 4"/>
        <polygon fill="#6E9CCD" points="21 19.967 50 3.349 50 7.349 21 23.967"/>
        <polygon fill="#6E9CCD" points="33 -18.909 43 -24.64 43 -20.64 33 -14.909"/>
        <polygon fill="#A1CD6E" points="28 -7.044 38 -12.774 38 -8.774 28 -3.044"/>
        <polygon fill="#6E9CCD" points="43 -15.64 53 -21.37 53 -17.37 43 -11.64"/>
        <polygon fill="#6E9CCD" points="13 8.551 23 2.821 23 6.821 13 12.551"/>
        <polygon fill="#6E9CCD" points="0 50 4 47.708 4 51.708 0 54"/>
        <polygon fill="#6E9CCD" points="6 19.562 16 13.832 16 17.832 6 23.562"/>
        <polygon fill="#A1CD6E" points="6 28.562 16 22.832 16 26.832 6 32.562"/>
        <polygon fill="#6E9CCD" points="47 -26.932 64 -36.673 64 -32.673 47 -22.932"/>
        <polygon fill="#6E9CCD" points="6 37.562 23 27.821 23 31.821 6 41.562"/>
        <polygon fill="#CD886E" points="6 5.562 23 -4.179 23 -.179 6 9.562"/>
      </g>
    </g>
    <path stroke="#2B6CB0" stroke-width="4" d="M210.024742,2.41325313 L2,121.779831 L2,259.480322 L11.0122107,264.805719 L219,144.844718 L219,7.30884823 L210.024742,2.41325313 Z"/>
    <g transform="translate(120.5 222.622)">
      <polygon fill="#D1E2F4" points="0 80.5 122.5 10 174 40 52 110.5"/>
      <polygon fill="#D1E2F4" points="0 72.5 52 102.5 174 32 174 40 52 110.5 0 80.5"/>
      <polygon fill="#FCFCFC" points="0 72.5 122.5 2 174 32 52 102.5"/>
      <polyline stroke="#6E9CCD" stroke-width="4" points="174 32.5 52 102.5 0 72.5"/>
      <path stroke="#6E9CCD" stroke-width="4" d="M52,102.5 L52,112.5"/>
      <path stroke="#2B6CB0" stroke-width="4" d="M176,30.8504561 L176,41.1541821 L52.000819,112.809447 L-2,81.6551278 L-2,71.3434572 L122.50607,-0.311056533 L176,30.8504561 Z"/>
      <polygon fill="#6E9CCD" points="17.803 25.003 94.803 69.623 94.803 73.623 17.803 29.003" transform="rotate(-60 56.303 49.313)"/>
      <polygon fill="#6E9CCD" points="28.303 31.003 105.303 75.623 105.303 79.623 28.303 35.003" transform="rotate(-60 66.803 55.313)"/>
      <polygon fill="#6E9CCD" points="39.803 37.687 116.803 82.307 116.803 86.307 39.803 41.687" transform="rotate(-60 78.303 61.997)"/>
      <polygon fill="#6E9CCD" points="50.303 43.687 127.303 88.307 127.303 92.307 50.303 47.687" transform="rotate(-60 88.803 67.997)"/>
      <polygon fill="#6E9CCD" points="100.5 6.5 126.5 21.567 126.5 25.567 100.5 10.5" transform="rotate(-60 113.5 16.033)"/>
      <polygon fill="#6E9CCD" points="110.5 12 136.5 27.067 136.5 31.067 110.5 16" transform="rotate(-60 123.5 21.533)"/>
      <polygon fill="#6E9CCD" points="120 17.5 146 32.567 146 36.567 120 21.5" transform="rotate(-60 133 27.033)"/>
    </g>
  </g>
</svg>
