<svg xmlns="http://www.w3.org/2000/svg" width="445" height="351" viewBox="0 0 445 351">
  <g fill="none" fill-rule="evenodd" transform="translate(8 3)">
    <g fill="#2B6CB0" transform="translate(38 111)">
      <polygon points="0 57.443 99.978 0 99.978 3.078 0 60.521"/>
      <polygon points="252.637 203.267 352.615 145.823 352.615 148.901 252.637 206.345"/>
      <polygon points="99.978 0 226.874 73.26 226.874 76.338 99.978 3.078"/>
      <polygon points="225.72 72.719 352.615 145.83 352.615 148.901 225.72 75.791"/>
      <polygon points="126.126 131.317 226.105 73.874 226.105 76.952 126.126 134.395"/>
      <polygon points="198.418 89.763 298.397 32.32 298.397 35.398 198.418 92.841"/>
    </g>
    <g transform="translate(245)">
      <g transform="translate(0 70.047)">
        <polygon fill="#F7FAFC" points="1.541 69.449 1.541 46.299 81.672 0 187.23 60.961 187.23 84.11 107.098 130.409"/>
        <polygon fill="#D1E2F4" points="187.23 60.961 187.23 84.11 107.098 130.409 107.098 107.26"/>
        <polygon fill="#D1E2F4" points="1.541 46.299 1.541 69.449 107.098 130.409 107.098 107.26"/>
        <path stroke="#6E9CCD" stroke-linecap="square" stroke-width="4" d="M107.098361,131.321565 L107.098361,107.259843"/>
        <polygon fill="#6E9CCD" points="107.098 107.26 187.23 60.961 81.672 0 1.541 46.299"/>
        <polyline stroke="#6E9CCD" stroke-width="4" points=".385 47.071 107.098 108.803 188 62.118"/>
        <path stroke="#2B6CB0" stroke-width="4" d="M-0.459016393,70.6033579 L-0.459016393,45.1449546 L81.6718877,-2.30970322 L189.229508,59.8060909 L189.229508,85.2644942 L107.098604,132.719152 L-0.459016393,70.6033579 Z"/>
        <polygon fill="#6E9CCD" points="15.41 66.748 74.738 101.179 74.738 104.266 15.41 69.835"/>
        <polygon fill="#6E9CCD" points="80.131 104.173 100.164 115.799 100.164 118.886 80.131 107.26"/>
        <path fill="#69CB8C" d="M7.70491803,66.8536078 C9.40704152,67.8524496 10.7868852,67.2802466 10.7868852,65.5755566 C10.7868852,63.8708667 9.40704152,61.6792212 7.70491803,60.6803795 C6.00279454,59.6815377 4.62295082,60.2537407 4.62295082,61.9584306 C4.62295082,63.6631206 6.00279454,65.854766 7.70491803,66.8536078 Z"/>
      </g>
      <g transform="translate(0 36.181)">
        <polygon fill="#F7FAFC" points="1.541 69.449 1.541 46.299 81.672 0 187.23 60.961 187.23 84.11 107.098 130.409"/>
        <polygon fill="#D1E2F4" points="187.23 60.961 187.23 84.11 107.098 130.409 107.098 107.26"/>
        <polygon fill="#D1E2F4" points="1.541 46.299 1.541 69.449 107.098 130.409 107.098 107.26"/>
        <path stroke="#6E9CCD" stroke-linecap="square" stroke-width="4" d="M107.098361,131.321565 L107.098361,107.259843"/>
        <polygon fill="#6E9CCD" points="107.098 107.26 187.23 60.961 81.672 0 1.541 46.299"/>
        <polyline stroke="#6E9CCD" stroke-width="4" points=".385 47.071 107.098 108.803 188 62.118"/>
        <path stroke="#2B6CB0" stroke-width="4" d="M-0.459016393,70.6033579 L-0.459016393,45.1449546 L81.6718877,-2.30970322 L189.229508,59.8060909 L189.229508,85.2644942 L107.098604,132.719152 L-0.459016393,70.6033579 Z"/>
        <polygon fill="#6E9CCD" points="15.41 66.748 74.738 101.179 74.738 104.266 15.41 69.835"/>
        <polygon fill="#6E9CCD" points="80.131 104.173 100.164 115.799 100.164 118.886 80.131 107.26"/>
        <path fill="#CB6969" d="M7.70491803,66.8536078 C9.40704152,67.8524496 10.7868852,67.2802466 10.7868852,65.5755566 C10.7868852,63.8708667 9.40704152,61.6792212 7.70491803,60.6803795 C6.00279454,59.6815377 4.62295082,60.2537407 4.62295082,61.9584306 C4.62295082,63.6631206 6.00279454,65.854766 7.70491803,66.8536078 Z"/>
      </g>
      <g transform="translate(0 2.315)">
        <polygon fill="#F7FAFC" points="1.541 69.449 1.541 46.299 81.672 0 187.23 60.961 187.23 84.11 107.098 130.409"/>
        <polygon fill="#D1E2F4" points="187.23 60.961 187.23 84.11 107.098 130.409 107.098 107.26"/>
        <polygon fill="#D1E2F4" points="1.541 46.299 1.541 69.449 107.098 130.409 107.098 107.26"/>
        <path stroke="#6E9CCD" stroke-linecap="square" stroke-width="4" d="M107.098361,131.321565 L107.098361,107.259843"/>
        <polygon fill="#FCFCFC" points="107.098 107.26 187.23 60.961 81.672 0 1.541 46.299"/>
        <polyline stroke="#6E9CCD" stroke-width="4" points=".385 47.071 107.098 108.803 188 62.118"/>
        <path stroke="#2B6CB0" stroke-width="4" d="M-0.459016393,70.6033579 L-0.459016393,45.1449546 L81.6718877,-2.30970322 L189.229508,59.8060909 L189.229508,85.2644942 L107.098604,132.719152 L-0.459016393,70.6033579 Z"/>
        <polygon fill="#6E9CCD" points="15.41 66.748 74.738 101.179 74.738 104.266 15.41 69.835"/>
        <polygon fill="#6E9CCD" points="80.131 104.173 100.164 115.799 100.164 118.886 80.131 107.26"/>
        <path fill="#69CB8C" d="M7.70491803,66.8536078 C9.40704152,67.8524496 10.7868852,67.2802466 10.7868852,65.5755566 C10.7868852,63.8708667 9.40704152,61.6792212 7.70491803,60.6803795 C6.00279454,59.6815377 4.62295082,60.2537407 4.62295082,61.9584306 C4.62295082,63.6631206 6.00279454,65.854766 7.70491803,66.8536078 Z"/>
      </g>
      <g fill="#D1E2F4" fill-rule="nonzero" transform="rotate(60 59.19 103.707)">
        <path d="M42.9170558 65.2093508C43.4504105 65.7001962 43.7762903 65.4538258 44.1910624 65.0346483 44.6058346 64.6154707 65.9402007 45.0589863 66.5919602 44.4439937 67.2437196 43.8290011 67.0364224 43.7330017 66.8291252 43.5147505 66.621828 43.2964994 59.5102542 37.3827428 59.1546843 37.0044979 58.7991145 36.626253 58.6213296 36.8496156 58.0582849 37.3531196L35.442623 56.281994C35.442623 56.281994 42.3837011 64.7185054 42.9170558 65.2093508zM68.5737705 41.2522984L68.5737705 29.6774952C66.0649733 31.7984589 62.8919899 34.4802538 61.6393443 35.5386467 63.5290056 37.0891081 66.4833983 39.5171432 68.5737705 41.2522984zM61.39889 21.4709917C61.0443227 21.7521558 53.1953846 27.6177937 52.7119001 27.9563739 52.2284156 28.294954 52.3895168 28.4742105 52.582983 28.6348815L59.4900847 34.0719679C59.4900847 34.0719679 67.9353323 27.1983942 68.4511817 26.793521 68.4929487 26.7606544 68.5338116 26.7277659 68.5737705 26.6952128L68.5737705 25.4551737C67.0386983 24.40454 62.856395 21.5458344 62.4949569 21.2619891 62.0599293 20.9199352 61.7534573 21.1898275 61.39889 21.4709917z"/>
        <path d="M12.779695,34.370015 C14.4562854,33.3400899 14.6093189,33.635796 15.3459485,34.3126485 L33.8519395,54.8262699 L57.1208743,36.000398 C55.8316833,34.9002348 49.9787775,29.9043795 49.4131957,29.4317517 C48.7773399,28.90014 49.4290698,28.114715 50.4624916,27.3516259 C51.4959134,26.5885369 60.3989653,20.0258526 61.1621707,19.4801431 C61.925376,18.9344336 62.529662,18.3196754 63.7696255,19.1137655 C64.4040544,19.5200401 66.5552626,20.9838257 68.5737705,22.3547044 L68.5737705,7.83634494 C68.5737705,4.28754385 67.3177546,1.96732813 64.8059011,0.875954236 C62.2940476,-0.215419661 59.2692287,0.244818423 55.7318013,2.25664455 L12.9252373,26.6018404 C9.38780986,28.6136666 6.36299103,31.5940133 3.85113753,35.5424988 C2.41033993,37.8073476 1.38494436,40.005934 0.770491803,42.1393626 C4.96499999,39.4081369 11.60626,35.090879 12.779695,34.370015 Z"/>
        <path d="M45.078861,68.3450022 C43.1143296,70.0546651 42.2334066,70.8496387 40.9537201,69.8001019 C39.9952945,69.0139649 34.8124389,62.6706088 32.2711021,59.5357595 C27.4616522,63.5247444 18.6597444,70.8169703 16.121622,72.8674232 C13.644216,74.8687711 12.5863227,73.992219 12.1793445,73.3124421 C11.8939776,72.8357884 4.63122959,61.3816263 -1.13686838e-13,54.015748 L-1.13686838e-13,89.8331631 C-1.13686838e-13,93.3583145 1.25754295,95.6569317 3.77245026,96.7298272 C6.28735758,97.802545 9.31585387,97.3317551 12.857582,95.3174831 L55.7161885,70.9426893 C59.2579166,68.9284173 62.2864129,65.9544394 64.8013202,62.0211364 C67.3162275,58.0876558 68.5737705,54.3586444 68.5737705,50.833493 L68.5737705,46.6262033 C63.312698,51.5335589 46.4024776,67.1930396 45.078861,68.3450022 Z"/>
        <path d="M15.9276102,69.5669968 C16.6134234,69.0167572 29.4660437,58.5663587 29.7404394,58.3503176 C30.014835,58.1342765 30.1910814,57.8738407 29.8971615,57.5210689 C29.6032415,57.1682971 12.7650248,37.0682921 12.7650248,37.0682921 C12.609534,36.8842759 12.6538594,36.7683707 12.2315364,37.0311858 C11.854946,37.2656569 2.3274377,43.5521859 0.121543187,44.994952 C0.0564621751,45.5003527 0.0172376734,46.0018239 -1.13686838e-13,46.5001297 C2.23931449,49.9072157 15.0914072,69.6618226 15.163524,69.8413524 C15.241973,70.0368568 15.2417971,70.1170568 15.9276102,69.5669968 Z"/>
      </g>
    </g>
    <g transform="translate(0 98)">
      <g transform="rotate(60 43.765 224.64)">
        <path fill="#FCFCFC" stroke="#2B6CB0" stroke-width="4" d="M-1.47733257,39.9030856 L73.2055943,-3.36667115 L73.2055943,69.8764847 L-1.47733257,113.146241 L-1.47733257,39.9030856 Z"/>
        <polygon fill="#D1E2F4" points=".523 41.056 71.206 .104 71.206 9.356 .523 50.308"/>
        <path fill="#69CB8C" d="M11.278765,38.6789696 C11.9152395,38.3102094 12.431204,37.4934777 12.431204,36.8547483 C12.431204,36.216019 11.9152395,35.9971659 11.278765,36.3659262 C10.6422905,36.7346864 10.126326,37.5514181 10.126326,38.1901474 C10.126326,38.8288768 10.6422905,39.0477299 11.278765,38.6789696 Z"/>
        <path fill="#CBC969" d="M7.43730157,40.9046348 C8.07377607,40.5358745 8.5897406,39.7191428 8.5897406,39.0804135 C8.5897406,38.4416842 8.07377607,38.222831 7.43730157,38.5915913 C6.80082707,38.9603516 6.28486255,39.7770833 6.28486255,40.4158126 C6.28486255,41.0545419 6.80082707,41.2733951 7.43730157,40.9046348 Z"/>
        <path fill="#CB6969" d="M3.59583816,43.1302999 C4.23231266,42.7615397 4.74827718,41.944808 4.74827718,41.3060786 C4.74827718,40.6673493 4.23231266,40.4484962 3.59583816,40.8172565 C2.95936366,41.1860167 2.44339913,42.0027484 2.44339913,42.6414777 C2.44339913,43.2802071 2.95936366,43.4990602 3.59583816,43.1302999 Z"/>
        <polygon fill="#FCFCFC" points="16.657 34.792 67.364 5.413 67.364 8.497 16.657 37.876"/>
      </g>
      <g transform="rotate(60 42.087 369.77)">
        <path fill="#FCFCFC" stroke="#2B6CB0" stroke-width="4" d="M-1.47733257,39.9030856 L73.2055943,-3.36667115 L73.2055943,69.8764847 L-1.47733257,113.146241 L-1.47733257,39.9030856 Z"/>
        <polygon fill="#D1E2F4" points=".523 41.056 71.206 .104 71.206 9.356 .523 50.308"/>
        <path fill="#69CB8C" d="M11.278765,38.6789696 C11.9152395,38.3102094 12.431204,37.4934777 12.431204,36.8547483 C12.431204,36.216019 11.9152395,35.9971659 11.278765,36.3659262 C10.6422905,36.7346864 10.126326,37.5514181 10.126326,38.1901474 C10.126326,38.8288768 10.6422905,39.0477299 11.278765,38.6789696 Z"/>
        <path fill="#CBC969" d="M7.43730157,40.9046348 C8.07377607,40.5358745 8.5897406,39.7191428 8.5897406,39.0804135 C8.5897406,38.4416842 8.07377607,38.222831 7.43730157,38.5915913 C6.80082707,38.9603516 6.28486255,39.7770833 6.28486255,40.4158126 C6.28486255,41.0545419 6.80082707,41.2733951 7.43730157,40.9046348 Z"/>
        <path fill="#CB6969" d="M3.59583816,43.1302999 C4.23231266,42.7615397 4.74827718,41.944808 4.74827718,41.3060786 C4.74827718,40.6673493 4.23231266,40.4484962 3.59583816,40.8172565 C2.95936366,41.1860167 2.44339913,42.0027484 2.44339913,42.6414777 C2.44339913,43.2802071 2.95936366,43.4990602 3.59583816,43.1302999 Z"/>
        <polygon fill="#FCFCFC" points="16.657 34.792 67.364 5.413 67.364 8.497 16.657 37.876"/>
      </g>
      <g transform="rotate(60 47.029 83.03)">
        <path fill="#FCFCFC" stroke="#2B6CB0" stroke-width="4" d="M-1.47733257,39.9030856 L73.2055943,-3.36667115 L73.2055943,69.8764847 L-1.47733257,113.146241 L-1.47733257,39.9030856 Z"/>
        <polygon fill="#D1E2F4" points=".523 41.056 71.206 .104 71.206 9.356 .523 50.308"/>
        <path fill="#69CB8C" d="M11.278765,38.6789696 C11.9152395,38.3102094 12.431204,37.4934777 12.431204,36.8547483 C12.431204,36.216019 11.9152395,35.9971659 11.278765,36.3659262 C10.6422905,36.7346864 10.126326,37.5514181 10.126326,38.1901474 C10.126326,38.8288768 10.6422905,39.0477299 11.278765,38.6789696 Z"/>
        <path fill="#CBC969" d="M7.43730157,40.9046348 C8.07377607,40.5358745 8.5897406,39.7191428 8.5897406,39.0804135 C8.5897406,38.4416842 8.07377607,38.222831 7.43730157,38.5915913 C6.80082707,38.9603516 6.28486255,39.7770833 6.28486255,40.4158126 C6.28486255,41.0545419 6.80082707,41.2733951 7.43730157,40.9046348 Z"/>
        <path fill="#CB6969" d="M3.59583816,43.1302999 C4.23231266,42.7615397 4.74827718,41.944808 4.74827718,41.3060786 C4.74827718,40.6673493 4.23231266,40.4484962 3.59583816,40.8172565 C2.95936366,41.1860167 2.44339913,42.0027484 2.44339913,42.6414777 C2.44339913,43.2802071 2.95936366,43.4990602 3.59583816,43.1302999 Z"/>
        <polygon fill="#FCFCFC" points="16.657 34.792 67.364 5.413 67.364 8.497 16.657 37.876"/>
      </g>
    </g>
  </g>
</svg>
